# xmcd
#
# Track frame offsets:
#	150
#	35926
#	74931
#	104727
#	148178
#	183640
#	219735
#	268051
#	305230
#
# Disc length: 4688 seconds
#
# Revision: 0
# Processed by: cddbd v1.5.1PL2 Copyright (c) Steve Scherf et al.
# Submitted via: EasyCDDAExtractor 9.0.0.1
#
DISCID=a8124e09
DTITLE=Various Artist - VA
DYEAR=1900
DGENRE=Trance
TTITLE0=Aspekt - Mobetta
TTITLE1=Dj Tab - Verso
TTITLE2=Rollerball - Albinoni (Above and Beyond Remix)
TTITLE3=Nitromethane - Time To Die (Cosmicman Remix)
TTITLE4=Darren Tate Vs. Jono Grant - Let The Light Shine In
TTITLE5=Darren Tate Vs. Jono Grant - Now Is The Time
TTITLE6=Afterburn - Frattboy
TTITLE7=Classified Project - Starlight Chaser
TTITLE8=Lucien Foort - Gemini (Saints and Sinners Remix)
EXTD=
EXTT0=
EXTT1=
EXTT2=
EXTT3=
EXTT4=
EXTT5=
EXTT6=
EXTT7=
EXTT8=
PLAYORDER=
